<svg width="20" height="12" viewBox="0 0 20 12" fill="none" xmlns="http://www.w3.org/2000/svg">
<rect width="20" height="12" rx="5.85" fill="#F5F5F5"/>
<path d="M5.39166 8.79993V4.47993L5.86416 4.95243H4.44666V4.07493H6.48516V8.79993H5.39166ZM9.41872 8.88093C8.98672 8.88093 8.61097 8.79093 8.29147 8.61093C7.97647 8.43093 7.73347 8.16768 7.56247 7.82118C7.39147 7.47468 7.30597 7.04718 7.30597 6.53868C7.30597 5.99418 7.40722 5.53293 7.60972 5.15493C7.81672 4.77693 8.10022 4.48893 8.46022 4.29093C8.82472 4.09293 9.24322 3.99393 9.71572 3.99393C9.96772 3.99393 10.2085 4.02093 10.438 4.07493C10.6675 4.12893 10.8655 4.20993 11.032 4.31793L10.627 5.12118C10.4965 5.03118 10.357 4.97043 10.2085 4.93893C10.06 4.90293 9.90472 4.88493 9.74272 4.88493C9.33322 4.88493 9.00922 5.00868 8.77072 5.25618C8.53222 5.50368 8.41297 5.87043 8.41297 6.35643C8.41297 6.43743 8.41297 6.52743 8.41297 6.62643C8.41747 6.72543 8.43097 6.82443 8.45347 6.92343L8.14972 6.63993C8.23522 6.46443 8.34547 6.31818 8.48047 6.20118C8.61547 6.07968 8.77522 5.98968 8.95972 5.93118C9.14872 5.86818 9.35572 5.83668 9.58072 5.83668C9.88672 5.83668 10.1612 5.89743 10.4042 6.01893C10.6472 6.14043 10.8407 6.31143 10.9847 6.53193C11.1332 6.75243 11.2075 7.01118 11.2075 7.30818C11.2075 7.62768 11.1265 7.90668 10.9645 8.14518C10.807 8.37918 10.5932 8.56143 10.3232 8.69193C10.0577 8.81793 9.75622 8.88093 9.41872 8.88093ZM9.35797 8.06418C9.51097 8.06418 9.64597 8.03718 9.76297 7.98318C9.88447 7.92468 9.97897 7.84143 10.0465 7.73343C10.114 7.62543 10.1477 7.50168 10.1477 7.36218C10.1477 7.14618 10.0735 6.97518 9.92497 6.84918C9.78097 6.71868 9.58747 6.65343 9.34447 6.65343C9.18247 6.65343 9.04072 6.68493 8.91922 6.74793C8.79772 6.80643 8.70097 6.88968 8.62897 6.99768C8.56147 7.10118 8.52772 7.22268 8.52772 7.36218C8.52772 7.49718 8.56147 7.61868 8.62897 7.72668C8.69647 7.83018 8.79097 7.91343 8.91247 7.97643C9.03397 8.03493 9.18247 8.06418 9.35797 8.06418ZM12.9598 7.99668V4.87818H13.8305V7.99668H12.9598ZM11.792 6.84918V6.02568H15.005V6.84918H11.792Z" fill="#272020"/>
</svg>
